<svg width="134" height="136" viewBox="0 0 134 136" fill="none" xmlns="http://www.w3.org/2000/svg">
<path d="M26.055 0H107.459C121.849 0 133.514 11.6764 133.514 26.0784V109.668C133.514 124.073 121.849 135.75 107.459 135.75H26.055C11.6647 135.75 0 124.073 0 109.668V26.0784C0 11.6764 11.6647 0 26.055 0Z" fill="url(#paint0_linear_451_245)"/>
<path d="M22.0632 111.135L20.8967 108.071H15.7487L14.5822 111.135H12.6381L17.4129 98.8175H19.357L24.0851 111.135H22.0632ZM17.3818 103.779L16.4486 106.236H20.2124L19.2481 103.701C19.0926 103.297 18.9371 102.857 18.7815 102.379C18.6338 101.905 18.486 101.427 18.3305 100.948C18.1633 101.438 18.0039 101.928 17.8483 102.426C17.6928 102.916 17.5373 103.367 17.3818 103.779Z" fill="#FFC468"/>
<path d="M30.5038 101.74C31.2581 101.74 31.8647 101.911 32.3235 102.253C32.7901 102.595 33.1206 103.07 33.3189 103.668C33.4822 103.381 33.7232 103.085 34.0343 102.782C34.3531 102.483 34.7225 102.234 35.1385 102.035C35.5624 101.841 36.0173 101.74 36.5072 101.74C37.3043 101.74 37.9264 101.911 38.3736 102.253C38.8168 102.595 39.1279 103.058 39.3067 103.637C39.4934 104.221 39.5867 104.866 39.5867 105.581V111.134H37.7514V105.69C37.7514 105.018 37.6192 104.469 37.3626 104.042C37.1021 103.618 36.6161 103.404 35.9006 103.404C35.2241 103.404 34.6642 103.622 34.2209 104.057C33.7854 104.485 33.5677 105.002 33.5677 105.613V111.134H31.7325V105.659C31.7325 105.006 31.5925 104.469 31.3125 104.042C31.0326 103.618 30.566 103.404 29.9128 103.404C29.4656 103.404 29.0651 103.509 28.7152 103.715C28.3614 103.913 28.0853 104.174 27.8909 104.493C27.6926 104.815 27.5954 105.173 27.5954 105.566V111.134H25.7601V101.895H27.5954V103.373C27.8753 102.949 28.268 102.572 28.7774 102.238C29.2945 101.907 29.87 101.74 30.5038 101.74Z" fill="#FFC468"/>
<path d="M50.6257 101.896V111.135H48.7905V109.704C48.5105 110.101 48.0945 110.466 47.5462 110.808C46.9941 111.139 46.3564 111.306 45.6332 111.306C44.8556 111.306 44.144 111.104 43.5025 110.699C42.857 110.287 42.3516 109.716 41.9783 108.989C41.605 108.265 41.4184 107.429 41.4184 106.485C41.4184 105.551 41.6089 104.723 41.9939 103.996C42.3866 103.273 42.9193 102.705 43.5958 102.301C44.2801 101.896 45.0578 101.694 45.9287 101.694C46.5703 101.694 47.1341 101.842 47.624 102.13C48.11 102.41 48.4989 102.736 48.7905 103.11V101.896H50.6257ZM46.0532 109.642C46.6131 109.642 47.103 109.51 47.5307 109.237C47.9545 108.957 48.2811 108.58 48.5105 108.102C48.7477 107.628 48.8682 107.087 48.8682 106.485C48.8682 105.905 48.7477 105.38 48.5105 104.914C48.2811 104.439 47.9545 104.066 47.5307 103.794C47.103 103.514 46.6131 103.374 46.0532 103.374C45.5127 103.374 45.0306 103.51 44.6067 103.778C44.179 104.05 43.8485 104.416 43.6114 104.883C43.382 105.349 43.2692 105.886 43.2692 106.485C43.2692 107.087 43.382 107.628 43.6114 108.102C43.8485 108.58 44.179 108.957 44.6067 109.237C45.0306 109.51 45.5127 109.642 46.0532 109.642Z" fill="#FFC468"/>
<path d="M59.6239 109.563V111.134H52.7806V109.625L57.3843 103.45H52.7806V101.895H59.515V103.373L54.8803 109.563H59.6239Z" fill="#FFC468"/>
<path d="M70.5414 106.5C70.5414 107.445 70.3315 108.281 69.9193 109.004C69.5033 109.719 68.9395 110.287 68.224 110.699C67.5164 111.103 66.7232 111.306 65.8444 111.306C64.9618 111.306 64.1647 111.103 63.4493 110.699C62.7339 110.287 62.1623 109.719 61.7385 109.004C61.3224 108.281 61.1164 107.445 61.1164 106.5C61.1164 105.567 61.3224 104.738 61.7385 104.011C62.1623 103.288 62.7339 102.72 63.4493 102.316C64.1647 101.904 64.9618 101.694 65.8444 101.694C66.7232 101.694 67.5164 101.904 68.224 102.316C68.9395 102.72 69.5033 103.288 69.9193 104.011C70.3315 104.738 70.5414 105.567 70.5414 106.5ZM68.6906 106.5C68.6984 105.878 68.574 105.333 68.3174 104.867C68.0685 104.392 67.7264 104.023 67.2909 103.762C66.8632 103.494 66.381 103.358 65.8444 103.358C65.304 103.358 64.8102 103.494 64.3669 103.762C63.9314 104.023 63.5815 104.392 63.3249 104.867C63.076 105.333 62.9555 105.878 62.9672 106.5C62.9555 107.114 63.076 107.658 63.3249 108.133C63.5815 108.611 63.9314 108.984 64.3669 109.253C64.8102 109.525 65.304 109.657 65.8444 109.657C66.381 109.657 66.8632 109.525 67.2909 109.253C67.7264 108.984 68.0685 108.611 68.3174 108.133C68.574 107.658 68.6984 107.114 68.6906 106.5Z" fill="#FFC468"/>
<path d="M77.361 101.694C78.1892 101.694 78.8308 101.865 79.2896 102.207C79.7445 102.549 80.0672 103.012 80.2539 103.591C80.4405 104.163 80.5338 104.801 80.5338 105.504V111.134H78.7141V105.629C78.7141 105.185 78.6519 104.785 78.5275 104.431C78.4108 104.081 78.2164 103.805 77.9365 103.607C77.6565 103.401 77.2599 103.319 76.7545 103.358C76.2879 103.358 75.8718 103.459 75.5102 103.654C75.1447 103.852 74.857 104.116 74.6393 104.447C74.4293 104.781 74.3282 105.143 74.3282 105.535V111.134H72.5241V101.896H74.3282V103.358C74.6082 102.923 75.0164 102.541 75.5569 102.207C76.0935 101.865 76.6961 101.694 77.361 101.694Z" fill="#FFC468"/>
<path d="M88.3843 111.135V98.8175H96.3785V100.637H90.2818V104.059H95.5853V105.894H90.2818V111.135H88.3843Z" fill="#FFC468"/>
<path d="M104.113 98.8175C105.315 98.8175 106.221 99.0819 106.835 99.6107C107.445 100.132 107.753 100.898 107.753 101.913C107.753 102.465 107.617 102.955 107.348 103.39C107.088 103.826 106.699 104.168 106.182 104.417C106.563 104.541 106.921 104.739 107.255 105.008C107.597 105.268 107.869 105.606 108.079 106.019C108.297 106.423 108.406 106.921 108.406 107.512C108.406 108.227 108.281 108.818 108.033 109.285C107.784 109.751 107.457 110.121 107.053 110.389C106.656 110.661 106.217 110.852 105.731 110.964C105.252 111.081 104.774 111.135 104.3 111.135H98.9808V98.8175H104.113ZM103.802 100.637H100.878V103.919H104.02C104.494 103.911 104.914 103.763 105.28 103.483C105.653 103.196 105.84 102.795 105.84 102.286C105.84 101.695 105.641 101.275 105.249 101.026C104.864 100.769 104.382 100.637 103.802 100.637ZM104.098 105.754H100.878V109.3H104.191C104.864 109.3 105.408 109.156 105.824 108.865C106.248 108.565 106.462 108.103 106.462 107.48C106.462 107.037 106.337 106.687 106.088 106.438C105.84 106.19 105.532 106.015 105.171 105.91C104.817 105.809 104.459 105.754 104.098 105.754Z" fill="#FFC468"/>
<path d="M119.112 111.135L117.945 108.071H112.797L111.631 111.135H109.687L114.461 98.8175H116.406L121.134 111.135H119.112ZM114.43 103.779L113.497 106.236H117.261L116.297 103.701C116.141 103.297 115.986 102.857 115.83 102.379C115.682 101.905 115.535 101.427 115.379 100.948C115.212 101.438 115.052 101.928 114.897 102.426C114.741 102.916 114.586 103.367 114.43 103.779Z" fill="#FFC468"/>
<path d="M93.1468 76.6138C63.6857 90.6969 45.4265 78.9 33.7385 71.7379C33.0192 71.2519 31.775 71.8312 32.8598 73.0755C36.7675 77.8191 49.5208 89.3244 66.1897 89.3244C82.8585 89.3244 92.7929 80.152 94.0216 78.5423C95.2659 76.9326 94.3444 76.0189 93.1468 76.6138Z" fill="#FFC468"/>
<path d="M72.3318 38.2602C64.5631 38.5479 45.2969 40.7564 45.2969 57.1686C45.2969 74.794 67.3548 75.5172 74.5675 64.1208C75.6057 65.7616 80.2093 70.1553 81.7918 71.6562L90.8514 62.6433C90.8514 62.6433 85.6995 58.5723 85.6995 54.1436V30.4721C85.6995 26.4011 81.7957 17.2287 67.7903 17.2287C53.7538 17.2287 46.3078 26.0784 46.3078 34.0142L58.027 35.1107C60.6282 27.1437 66.6744 27.1437 66.6744 27.1437C73.1677 27.1243 72.3357 31.9418 72.3357 38.2641L72.3318 38.2602ZM72.3318 52.2267C72.3318 65.1045 58.9018 63.176 58.9018 54.9951C58.9018 47.4014 66.9543 45.8694 72.3318 45.6945V52.2267Z" fill="#FFC468"/>
<path d="M101.404 71.9597C100.611 70.9177 96.5714 70.7544 94.0674 71.0421C91.5478 71.3609 87.7179 72.9435 88.0873 73.8572C88.2467 74.2266 88.5966 74.0672 90.3191 73.9077C92.0727 73.7289 96.9369 73.0873 97.975 74.421C99.0288 75.7858 96.4275 82.2247 95.9493 83.2706C95.4749 84.3165 96.1087 84.6081 96.9874 83.8811C97.8195 83.2045 99.332 81.4354 100.37 78.8886H100.366C101.404 76.3223 101.995 72.7802 101.404 71.9597Z" fill="#FFC468"/>
<defs>
<linearGradient id="paint0_linear_451_245" x1="119.503" y1="125.5" x2="0.00363992" y2="-0.0034658" gradientUnits="userSpaceOnUse">
<stop/>
<stop offset="1" stop-color="#707070"/>
</linearGradient>
</defs>
</svg>
