<svg width="181" height="185" viewBox="0 0 181 185" fill="none" xmlns="http://www.w3.org/2000/svg">
<path d="M35.3218 0H145.678C165.187 0 181 15.8292 181 35.3535V148.672C181 168.202 165.187 184.031 145.678 184.031H35.3218C15.8134 184.031 0 168.202 0 148.672V35.3535C0 15.8292 15.8134 0 35.3218 0Z" fill="url(#paint0_linear_468_202)"/>
<path d="M41.1 163V149H42.74L52 160.5H51.14V149H53.14V163H51.5L42.24 151.5H43.1V163H41.1Z" fill="#FFC468"/>
<path d="M61.7705 163.12C60.6371 163.12 59.6371 162.887 58.7705 162.42C57.9171 161.953 57.2505 161.313 56.7705 160.5C56.3038 159.687 56.0705 158.753 56.0705 157.7C56.0705 156.647 56.2971 155.713 56.7505 154.9C57.2171 154.087 57.8505 153.453 58.6505 153C59.4638 152.533 60.3771 152.3 61.3905 152.3C62.4171 152.3 63.3238 152.527 64.1105 152.98C64.8971 153.433 65.5105 154.073 65.9505 154.9C66.4038 155.713 66.6305 156.667 66.6305 157.76C66.6305 157.84 66.6238 157.933 66.6105 158.04C66.6105 158.147 66.6038 158.247 66.5905 158.34H57.5705V156.96H65.5905L64.8105 157.44C64.8238 156.76 64.6838 156.153 64.3905 155.62C64.0971 155.087 63.6905 154.673 63.1705 154.38C62.6638 154.073 62.0705 153.92 61.3905 153.92C60.7238 153.92 60.1305 154.073 59.6105 154.38C59.0905 154.673 58.6838 155.093 58.3905 155.64C58.0971 156.173 57.9505 156.787 57.9505 157.48V157.8C57.9505 158.507 58.1105 159.14 58.4305 159.7C58.7638 160.247 59.2238 160.673 59.8105 160.98C60.3971 161.287 61.0705 161.44 61.8305 161.44C62.4571 161.44 63.0238 161.333 63.5305 161.12C64.0505 160.907 64.5038 160.587 64.8905 160.16L65.9505 161.4C65.4705 161.96 64.8705 162.387 64.1505 162.68C63.4438 162.973 62.6505 163.12 61.7705 163.12Z" fill="#FFC468"/>
<path d="M71.3412 163L67.4013 152.4H69.2213L72.7213 162H71.8613L75.5013 152.4H77.1213L80.6813 162H79.8412L83.4212 152.4H85.1413L81.1813 163H79.3412L76.0013 154.24H76.5612L73.1813 163H71.3412Z" fill="#FFC468"/>
<path d="M96.8206 163.16C95.754 163.16 94.734 163 93.7606 162.68C92.7873 162.347 92.0206 161.92 91.4606 161.4L92.2006 159.84C92.734 160.307 93.414 160.693 94.2406 161C95.0673 161.307 95.9273 161.46 96.8206 161.46C97.634 161.46 98.294 161.367 98.8006 161.18C99.3073 160.993 99.6806 160.74 99.9206 160.42C100.161 160.087 100.281 159.713 100.281 159.3C100.281 158.82 100.121 158.433 99.8006 158.14C99.494 157.847 99.0873 157.613 98.5806 157.44C98.0873 157.253 97.5406 157.093 96.9406 156.96C96.3406 156.827 95.734 156.673 95.1206 156.5C94.5206 156.313 93.9673 156.08 93.4606 155.8C92.9673 155.52 92.5673 155.147 92.2606 154.68C91.954 154.2 91.8006 153.587 91.8006 152.84C91.8006 152.12 91.9873 151.46 92.3606 150.86C92.7473 150.247 93.334 149.76 94.1206 149.4C94.9206 149.027 95.934 148.84 97.1606 148.84C97.974 148.84 98.7806 148.947 99.5806 149.16C100.381 149.373 101.074 149.68 101.661 150.08L101.001 151.68C100.401 151.28 99.7673 150.993 99.1006 150.82C98.434 150.633 97.7873 150.54 97.1606 150.54C96.374 150.54 95.7273 150.64 95.2206 150.84C94.714 151.04 94.3406 151.307 94.1006 151.64C93.874 151.973 93.7606 152.347 93.7606 152.76C93.7606 153.253 93.914 153.647 94.2206 153.94C94.5406 154.233 94.9473 154.467 95.4406 154.64C95.9473 154.813 96.5006 154.973 97.1006 155.12C97.7006 155.253 98.3006 155.407 98.9006 155.58C99.514 155.753 100.067 155.98 100.561 156.26C101.067 156.54 101.474 156.913 101.781 157.38C102.087 157.847 102.241 158.447 102.241 159.18C102.241 159.887 102.047 160.547 101.661 161.16C101.274 161.76 100.674 162.247 99.8606 162.62C99.0606 162.98 98.0473 163.16 96.8206 163.16Z" fill="#FFC468"/>
<path d="M106.442 160.44L106.482 157.98L112.582 152.4H114.902L110.223 157L109.183 157.88L106.442 160.44ZM104.882 163V148.16H106.802V163H104.882ZM112.982 163L108.823 157.84L110.062 156.3L115.342 163H112.982Z" fill="#FFC468"/>
<path d="M117.207 163V152.4H119.127V163H117.207ZM118.167 150.36C117.793 150.36 117.48 150.24 117.227 150C116.987 149.76 116.867 149.467 116.867 149.12C116.867 148.76 116.987 148.46 117.227 148.22C117.48 147.98 117.793 147.86 118.167 147.86C118.54 147.86 118.847 147.98 119.087 148.22C119.34 148.447 119.467 148.733 119.467 149.08C119.467 149.44 119.347 149.747 119.107 150C118.867 150.24 118.553 150.36 118.167 150.36Z" fill="#FFC468"/>
<path d="M122.793 163V148.16H124.713V163H122.793Z" fill="#FFC468"/>
<path d="M128.379 163V148.16H130.299V163H128.379Z" fill="#FFC468"/>
<path d="M137.005 163.12C136.125 163.12 135.285 163 134.485 162.76C133.698 162.52 133.078 162.227 132.625 161.88L133.425 160.36C133.878 160.667 134.438 160.927 135.105 161.14C135.771 161.353 136.451 161.46 137.145 161.46C138.038 161.46 138.678 161.333 139.065 161.08C139.465 160.827 139.665 160.473 139.665 160.02C139.665 159.687 139.545 159.427 139.305 159.24C139.065 159.053 138.745 158.913 138.345 158.82C137.958 158.727 137.525 158.647 137.045 158.58C136.565 158.5 136.085 158.407 135.605 158.3C135.125 158.18 134.685 158.02 134.285 157.82C133.885 157.607 133.565 157.32 133.325 156.96C133.085 156.587 132.965 156.093 132.965 155.48C132.965 154.84 133.145 154.28 133.505 153.8C133.865 153.32 134.371 152.953 135.025 152.7C135.691 152.433 136.478 152.3 137.385 152.3C138.078 152.3 138.778 152.387 139.485 152.56C140.205 152.72 140.791 152.953 141.245 153.26L140.425 154.78C139.945 154.46 139.445 154.24 138.925 154.12C138.405 154 137.885 153.94 137.365 153.94C136.525 153.94 135.898 154.08 135.485 154.36C135.071 154.627 134.865 154.973 134.865 155.4C134.865 155.76 134.985 156.04 135.225 156.24C135.478 156.427 135.798 156.573 136.185 156.68C136.585 156.787 137.025 156.88 137.505 156.96C137.985 157.027 138.465 157.12 138.945 157.24C139.425 157.347 139.858 157.5 140.245 157.7C140.645 157.9 140.965 158.18 141.205 158.54C141.458 158.9 141.585 159.38 141.585 159.98C141.585 160.62 141.398 161.173 141.025 161.64C140.651 162.107 140.125 162.473 139.445 162.74C138.765 162.993 137.951 163.12 137.005 163.12Z" fill="#FFC468"/>
<path d="M91.8084 94.1595C85.3062 94.1595 81.7785 89.0012 81.7785 84.121C81.7785 73.0615 88.6674 67.0213 94.7293 61.7269C99.4691 57.562 103.575 53.9764 103.575 48.682C103.575 43.276 99.11 37.5399 90.8715 37.5399C86.9861 37.5399 83.8726 38.726 81.5859 41.0415C79.0517 43.6062 77.7006 47.4684 77.7831 51.9359C77.7831 56.8727 74.6971 62.1396 67.8908 62.1396C61.086 62.1671 58 56.9002 58 51.991C58 31.2246 74.9447 20 90.899 20C109.195 20 123 32.4931 123 49.0672C123 60.926 115.974 66.7736 110.298 71.4888C105.586 75.4335 101.838 78.5224 101.838 84.121C101.838 89.0012 98.312 94.1595 91.8084 94.1595ZM90.899 32.0239C102.307 32.0239 109.112 40.4898 109.112 48.682C109.112 56.4585 103.657 61.2577 98.3671 65.8628C92.6628 70.8545 87.2902 75.5436 87.2902 84.121C87.2902 86.299 88.6949 88.6435 91.8084 88.6435C94.9219 88.6435 96.3281 86.299 96.3281 84.121C96.3281 75.9563 101.646 71.5163 106.771 67.2414C112.281 62.6638 117.49 58.3338 117.49 49.0672C117.49 33.5952 104.125 25.5145 90.899 25.5145C77.2878 25.5145 63.5102 34.6161 63.5102 51.991C63.5102 53.0945 63.8129 56.6511 67.8908 56.6511C71.9688 56.6511 72.2729 53.0945 72.2729 51.991C72.1904 46.0608 74.1193 40.7939 77.6731 37.1808C80.9792 33.8168 85.5539 32.0239 90.899 32.0239Z" fill="#FFC468"/>
<path d="M86.3827 128.68C87.1607 129.503 88.127 130.03 89.2817 130.253V122.411C89.1561 122.362 88.9887 122.306 88.7724 122.243C88.5596 122.181 88.3259 122.125 88.0782 122.076C87.1467 121.825 86.2292 121.528 85.3257 121.193C84.4222 120.855 83.6128 120.401 82.8942 119.84C82.179 119.278 81.6069 118.577 81.1848 117.74C80.7557 116.902 80.5429 115.856 80.5429 114.603C80.5429 113.33 80.7871 112.203 81.279 111.23C81.7674 110.253 82.4127 109.433 83.2186 108.771C84.021 108.108 84.9489 107.595 86.0025 107.232C87.0595 106.869 88.1514 106.653 89.2817 106.576V103.691H91.5039V106.58C92.6342 106.705 93.6947 106.949 94.689 107.312C95.6797 107.675 96.5554 108.174 97.3054 108.812C98.0589 109.451 98.6729 110.246 99.1543 111.195C99.6288 112.147 99.9044 113.271 99.9811 114.572H94.6332C94.6052 113.571 94.2948 112.72 93.6878 112.018C93.0877 111.321 92.3586 110.968 91.5074 110.968V117.607C91.8074 117.684 92.1144 117.757 92.4284 117.834C92.7458 117.907 93.0773 117.998 93.4296 118.095C95.289 118.598 96.7193 119.219 97.724 119.955C98.7252 120.691 99.4683 121.462 99.9462 122.261C100.421 123.06 100.703 123.862 100.794 124.664C100.881 125.463 100.923 126.175 100.923 126.799C100.923 127.354 100.787 128.045 100.511 128.882C100.232 129.723 99.7369 130.539 99.0218 131.341C98.3066 132.14 97.3438 132.855 96.1402 133.48C94.9332 134.104 93.3877 134.481 91.5074 134.607V137.795H89.2852V134.607C86.4734 134.408 84.2756 133.543 82.6918 132.018C81.108 130.494 80.194 128.254 79.9429 125.303H85.2559C85.228 126.73 85.6048 127.853 86.3827 128.68ZM88.0398 111.157C87.6386 111.282 87.2758 111.478 86.9479 111.736C86.6234 112.001 86.3653 112.325 86.1769 112.713C85.9885 113.1 85.8943 113.557 85.8943 114.08C85.8943 114.907 86.156 115.542 86.6862 115.995C87.213 116.442 88.0782 116.808 89.2852 117.08V110.968C88.8561 110.968 88.441 111.031 88.0398 111.157ZM92.9203 129.936C93.4087 129.772 93.8482 129.541 94.2355 129.241C94.6262 128.941 94.9471 128.572 95.1983 128.132C95.446 127.696 95.5751 127.176 95.5751 126.576C95.5751 125.599 95.2646 124.87 94.6506 124.382C94.0366 123.893 92.9866 123.45 91.5074 123.049V130.253C91.9574 130.204 92.4284 130.1 92.9203 129.936Z" fill="#FFC468"/>
<defs>
<linearGradient id="paint0_linear_468_202" x1="162.006" y1="170.136" x2="0.00493557" y2="-0.00469947" gradientUnits="userSpaceOnUse">
<stop/>
<stop offset="1" stop-color="#707070"/>
</linearGradient>
</defs>
</svg>
